<?xml version="1.0" encoding="UTF-8" standalone="no"?><svg xmlns="http://www.w3.org/2000/svg" xmlns:xlink="http://www.w3.org/1999/xlink" contentStyleType="text/css" height="739px" preserveAspectRatio="none" style="width:910px;height:739px;background:#FFFFFF;" version="1.1" viewBox="0 0 910 739" width="910px" zoomAndPan="magnify"><defs/><g><rect fill="none" height="737.2002" style="stroke:#FFFFFF;stroke-width:1.0;" width="908.75" x="0" y="0"/><ellipse cx="456" cy="20" fill="#08427B" rx="10" ry="10" style="stroke:#222222;stroke-width:1.0;"/><rect fill="#FFFCFF" height="440.8001" style="stroke:#A0439C;stroke-width:1.5;" width="888.75" x="11" y="40"/><path d="M79,40 L79,52.6 L69,62.6 L11,62.6 " fill="none" style="stroke:#A0439C;stroke-width:1.5;"/><text fill="#A0439C" font-family="Roboto" font-size="13" lengthAdjust="spacing" textLength="54" x="16" y="56">input files</text><line style="stroke:#E91E63;stroke-width:1.5;" x1="112.5" x2="812.75" y1="79.6" y2="79.6"/><path d="M44,131.3 L44,176.5 L181,176.5 L181,141.3 L171,131.3 L44,131.3 " fill="#999999" style="stroke:#181818;stroke-width:0.5;"/><path d="M171,131.3 L171,141.3 L181,141.3 L171,131.3 " fill="#999999" style="stroke:#181818;stroke-width:0.5;"/><text fill="#FFFFFF" font-family="Roboto" font-size="13" lengthAdjust="spacing" textLength="106" x="55" y="151.3">manually compiled</text><text fill="#FFFFFF" font-family="Roboto" font-size="13" lengthAdjust="spacing" textLength="112" x="52" y="166.9">using S2I templates</text><path d="M203,211.5 L203,230.1 L183,234.1 L203,238.1 L203,256.7001 A0,0 0 0 0 203,256.7001 L327,256.7001 A0,0 0 0 0 327,256.7001 L327,221.5 L317,211.5 L203,211.5 A0,0 0 0 0 203,211.5 " fill="#999999" style="stroke:#181818;stroke-width:0.5;"/><path d="M317,211.5 L317,221.5 L327,221.5 L317,211.5 " fill="#999999" style="stroke:#181818;stroke-width:0.5;"/><text fill="#FFFFFF" font-family="Roboto" font-size="13" lengthAdjust="spacing" textLength="99" x="211" y="231.5">1st, 2nd, 3rd level</text><text fill="#FFFFFF" font-family="Roboto" font-size="13" lengthAdjust="spacing" textLength="50" x="235.5" y="247.1001">activities</text><polygon fill="#D32F2F" points="52,214.3,183,214.3,173,234.1,183,253.9001,52,253.9001" style="stroke:#FFFFFF;stroke-width:0.5;"/><text fill="#FFFFFF" font-family="Roboto" font-size="13" lengthAdjust="spacing" textLength="97" x="69" y="239.3001">Nuffic S2I sheets</text><path d="M218.5,291.7001 L218.5,310.3001 L198.5,314.3001 L218.5,318.3001 L218.5,336.9001 A0,0 0 0 0 218.5,336.9001 L318.5,336.9001 A0,0 0 0 0 318.5,336.9001 L318.5,301.7001 L308.5,291.7001 L218.5,291.7001 A0,0 0 0 0 218.5,291.7001 " fill="#999999" style="stroke:#181818;stroke-width:0.5;"/><path d="M308.5,291.7001 L308.5,301.7001 L318.5,301.7001 L308.5,291.7001 " fill="#999999" style="stroke:#181818;stroke-width:0.5;"/><text fill="#FFFFFF" font-family="Roboto" font-size="13" lengthAdjust="spacing" textLength="55" x="236.5" y="311.7001">additional</text><text fill="#FFFFFF" font-family="Roboto" font-size="13" lengthAdjust="spacing" textLength="75" x="226.5" y="327.3001">baseline data</text><polygon fill="#D32F2F" points="36.5,294.5001,198.5,294.5001,188.5,314.3001,198.5,334.1001,36.5,334.1001" style="stroke:#FFFFFF;stroke-width:0.5;"/><text fill="#FFFFFF" font-family="Roboto" font-size="13" lengthAdjust="spacing" textLength="128" x="53.5" y="319.5001">results.baselines_OKP</text><path d="M232,371.9001 L232,390.5001 L212,394.5001 L232,398.5001 L232,417.1001 A0,0 0 0 0 232,417.1001 L376,417.1001 A0,0 0 0 0 376,417.1001 L376,381.9001 L366,371.9001 L232,371.9001 A0,0 0 0 0 232,371.9001 " fill="#999999" style="stroke:#181818;stroke-width:0.5;"/><path d="M366,371.9001 L366,381.9001 L376,381.9001 L366,371.9001 " fill="#999999" style="stroke:#181818;stroke-width:0.5;"/><text fill="#FFFFFF" font-family="Roboto" font-size="13" lengthAdjust="spacing" textLength="119" x="240" y="391.9001">aggregated countries</text><text fill="#FFFFFF" font-family="Roboto" font-size="13" lengthAdjust="spacing" textLength="111" x="244" y="407.5001">based on Atlas data</text><polygon fill="#D32F2F" points="23,374.7001,212,374.7001,202,394.5001,212,414.3001,23,414.3001" style="stroke:#FFFFFF;stroke-width:0.5;"/><text fill="#FFFFFF" font-family="Roboto" font-size="13" lengthAdjust="spacing" textLength="155" x="40" y="399.7001">countries and regions_OKP</text><path d="M387.25,99.6 L387.25,129.2 L562.25,129.2 L562.25,109.6 L552.25,99.6 L387.25,99.6 " fill="#999999" style="stroke:#181818;stroke-width:0.5;"/><path d="M552.25,99.6 L552.25,109.6 L562.25,109.6 L552.25,99.6 " fill="#999999" style="stroke:#181818;stroke-width:0.5;"/><text fill="#FFFFFF" font-family="Roboto" font-size="13" lengthAdjust="spacing" textLength="150" x="395.25" y="119.6">OKP exports from systems</text><path d="M546.25,164.2 L546.25,182.8 L526.25,186.8 L546.25,190.8 L546.25,209.4001 A0,0 0 0 0 546.25,209.4001 L659.25,209.4001 A0,0 0 0 0 659.25,209.4001 L659.25,174.2 L649.25,164.2 L546.25,164.2 A0,0 0 0 0 546.25,164.2 " fill="#999999" style="stroke:#181818;stroke-width:0.5;"/><path d="M649.25,164.2 L649.25,174.2 L659.25,174.2 L649.25,164.2 " fill="#999999" style="stroke:#181818;stroke-width:0.5;"/><text fill="#FFFFFF" font-family="Roboto" font-size="13" lengthAdjust="spacing" textLength="39" x="578.75" y="184.2">info for</text><text fill="#FFFFFF" font-family="Roboto" font-size="13" lengthAdjust="spacing" textLength="88" x="554.25" y="199.8001">TMT/TMT+/RC</text><polygon fill="#D32F2F" points="433.25,167,526.25,167,516.25,186.8,526.25,206.6,433.25,206.6" style="stroke:#FFFFFF;stroke-width:0.5;"/><text fill="#FFFFFF" font-family="Roboto" font-size="13" lengthAdjust="spacing" textLength="59" x="450.25" y="192">Akvo XML</text><path d="M558.75,257.2001 L558.75,268.0001 L538.75,272.0001 L558.75,276.0001 L558.75,286.8001 A0,0 0 0 0 558.75,286.8001 L668.75,286.8001 A0,0 0 0 0 668.75,286.8001 L668.75,267.2001 L658.75,257.2001 L558.75,257.2001 A0,0 0 0 0 558.75,257.2001 " fill="#999999" style="stroke:#181818;stroke-width:0.5;"/><path d="M658.75,257.2001 L658.75,267.2001 L668.75,267.2001 L658.75,257.2001 " fill="#999999" style="stroke:#181818;stroke-width:0.5;"/><text fill="#FFFFFF" font-family="Roboto" font-size="13" lengthAdjust="spacing" textLength="85" x="566.75" y="277.2001">all transactions</text><polygon fill="#D32F2F" points="420.75,244.4001,538.75,244.4001,528.75,272.0001,538.75,299.6001,420.75,299.6001" style="stroke:#FFFFFF;stroke-width:0.5;"/><text fill="#FFFFFF" font-family="Roboto" font-size="13" lengthAdjust="spacing" textLength="84" x="437.75" y="269.4001">BusinessWorld</text><text fill="#FFFFFF" font-family="Roboto" font-size="13" lengthAdjust="spacing" textLength="69" x="445.25" y="285.0001">transactions</text><path d="M580.25,339.6001 L580.25,350.4001 L560.25,354.4001 L580.25,358.4001 L580.25,369.2001 A0,0 0 0 0 580.25,369.2001 L734.25,369.2001 A0,0 0 0 0 734.25,369.2001 L734.25,349.6001 L724.25,339.6001 L580.25,339.6001 A0,0 0 0 0 580.25,339.6001 " fill="#999999" style="stroke:#181818;stroke-width:0.5;"/><path d="M724.25,339.6001 L724.25,349.6001 L734.25,349.6001 L724.25,339.6001 " fill="#999999" style="stroke:#181818;stroke-width:0.5;"/><text fill="#FFFFFF" font-family="Roboto" font-size="13" lengthAdjust="spacing" textLength="129" x="588.25" y="359.6001">IS activities 2017-2019</text><polygon fill="#D32F2F" points="399.25,334.6001,560.25,334.6001,550.25,354.4001,560.25,374.2001,399.25,374.2001" style="stroke:#FFFFFF;stroke-width:0.5;"/><text fill="#FFFFFF" font-family="Roboto" font-size="13" lengthAdjust="spacing" textLength="127" x="416.25" y="359.6001">Projects OKP-IS Atlas</text><path d="M580.75,414.2001 L580.75,425.0001 L560.75,429.0001 L580.75,433.0001 L580.75,443.8001 A0,0 0 0 0 580.75,443.8001 L710.75,443.8001 A0,0 0 0 0 710.75,443.8001 L710.75,424.2001 L700.75,414.2001 L580.75,414.2001 A0,0 0 0 0 580.75,414.2001 " fill="#999999" style="stroke:#181818;stroke-width:0.5;"/><path d="M700.75,414.2001 L700.75,424.2001 L710.75,424.2001 L700.75,414.2001 " fill="#999999" style="stroke:#181818;stroke-width:0.5;"/><text fill="#FFFFFF" font-family="Roboto" font-size="13" lengthAdjust="spacing" textLength="105" x="588.75" y="434.2001">IS activities 2020+</text><polygon fill="#D32F2F" points="398.75,409.2001,560.75,409.2001,550.75,429.0001,560.75,448.8001,398.75,448.8001" style="stroke:#FFFFFF;stroke-width:0.5;"/><text fill="#FFFFFF" font-family="Roboto" font-size="13" lengthAdjust="spacing" textLength="128" x="415.75" y="434.2001">Projects OKP-IS Delta</text><path d="M744.25,214.3 L744.25,259.5001 L881.25,259.5001 L881.25,224.3 L871.25,214.3 L744.25,214.3 " fill="#999999" style="stroke:#181818;stroke-width:0.5;"/><path d="M871.25,214.3 L871.25,224.3 L881.25,224.3 L871.25,214.3 " fill="#999999" style="stroke:#181818;stroke-width:0.5;"/><text fill="#FFFFFF" font-family="Roboto" font-size="13" lengthAdjust="spacing" textLength="87" x="764.75" y="234.3001">Neso Indonesia</text><text fill="#FFFFFF" font-family="Roboto" font-size="13" lengthAdjust="spacing" textLength="112" x="752.25" y="249.9001">using S2I templates</text><polygon fill="#D32F2F" points="747.75,294.5001,887.75,294.5001,877.75,314.3001,887.75,334.1001,747.75,334.1001" style="stroke:#FFFFFF;stroke-width:0.5;"/><text fill="#FFFFFF" font-family="Roboto" font-size="13" lengthAdjust="spacing" textLength="106" x="764.75" y="319.5001">StuNed S2I sheets</text><line style="stroke:#E91E63;stroke-width:1.5;" x1="112.5" x2="812.75" y1="468.8001" y2="468.8001"/><rect fill="#E18114" height="6" rx="2.5" ry="2.5" style="stroke:#E18114;stroke-width:1.0;" width="412.25" x="258.25" y="500.8001"/><rect fill="#1168BD" height="55.2" rx="12.5" ry="12.5" style="stroke:#FFFFFF;stroke-width:0.5;" width="105" x="272.25" y="526.8001"/><text fill="#FFFFFF" font-family="Roboto" font-size="13" lengthAdjust="spacing" textLength="44" x="302.75" y="551.8001">process</text><text fill="#FFFFFF" font-family="Roboto" font-size="13" lengthAdjust="spacing" textLength="81" x="284.25" y="567.4001">main structure</text><rect fill="#1168BD" height="55.2" rx="12.5" ry="12.5" style="stroke:#FFFFFF;stroke-width:0.5;" width="68" x="388.5" y="526.8001"/><text fill="#FFFFFF" font-family="Roboto" font-size="13" lengthAdjust="spacing" textLength="44" x="400.5" y="551.8001">process</text><text fill="#FFFFFF" font-family="Roboto" font-size="13" lengthAdjust="spacing" textLength="41" x="402" y="567.4001">IS data</text><rect fill="#1168BD" height="55.2" rx="12.5" ry="12.5" style="stroke:#FFFFFF;stroke-width:0.5;" width="70" x="484.5" y="526.8001"/><text fill="#FFFFFF" font-family="Roboto" font-size="13" lengthAdjust="spacing" textLength="44" x="497.5" y="551.8001">process</text><text fill="#FFFFFF" font-family="Roboto" font-size="13" lengthAdjust="spacing" textLength="46" x="496.5" y="567.4001">GT data</text><rect fill="#1168BD" height="55.2" rx="12.5" ry="12.5" style="stroke:#FFFFFF;stroke-width:0.5;" width="74" x="582.5" y="526.8001"/><text fill="#FFFFFF" font-family="Roboto" font-size="13" lengthAdjust="spacing" textLength="44" x="597.5" y="551.8001">process</text><text fill="#FFFFFF" font-family="Roboto" font-size="13" lengthAdjust="spacing" textLength="50" x="594.5" y="567.4001">ICP data</text><rect fill="#E18114" height="6" rx="2.5" ry="2.5" style="stroke:#E18114;stroke-width:1.0;" width="412.25" x="258.25" y="602.0001"/><rect fill="#1168BD" height="39.6" rx="12.5" ry="12.5" style="stroke:#FFFFFF;stroke-width:0.5;" width="60" x="426" y="628.0001"/><text fill="#FFFFFF" font-family="Roboto" font-size="13" lengthAdjust="spacing" textLength="36" x="438" y="653.0001">merge</text><polygon fill="#D32F2F" points="421.5,687.6002,490.5,687.6002,500.5,707.4002,490.5,727.2002,421.5,727.2002" style="stroke:#FFFFFF;stroke-width:0.5;"/><text fill="#FFFFFF" font-family="Roboto" font-size="13" lengthAdjust="spacing" textLength="45" x="438.5" y="712.6002">IATI file</text><line style="stroke:#E91E63;stroke-width:1.0;" x1="112.5" x2="112.5" y1="176.5" y2="214.3"/><polygon fill="#E91E63" points="108.5,204.3,112.5,214.3,116.5,204.3,112.5,208.3" style="stroke:#E91E63;stroke-width:1.0;"/><line style="stroke:#E91E63;stroke-width:1.0;" x1="112.5" x2="112.5" y1="253.9001" y2="294.5001"/><polygon fill="#E91E63" points="108.5,284.5001,112.5,294.5001,116.5,284.5001,112.5,288.5001" style="stroke:#E91E63;stroke-width:1.0;"/><line style="stroke:#E91E63;stroke-width:1.0;" x1="112.5" x2="112.5" y1="334.1001" y2="374.7001"/><polygon fill="#E91E63" points="108.5,364.7001,112.5,374.7001,116.5,364.7001,112.5,368.7001" style="stroke:#E91E63;stroke-width:1.0;"/><line style="stroke:#E91E63;stroke-width:1.0;" x1="474.75" x2="474.75" y1="129.2" y2="167"/><polygon fill="#E91E63" points="470.75,157,474.75,167,478.75,157,474.75,161" style="stroke:#E91E63;stroke-width:1.0;"/><line style="stroke:#E91E63;stroke-width:1.0;" x1="474.75" x2="474.75" y1="206.6" y2="244.4001"/><polygon fill="#E91E63" points="470.75,234.4001,474.75,244.4001,478.75,234.4001,474.75,238.4001" style="stroke:#E91E63;stroke-width:1.0;"/><line style="stroke:#E91E63;stroke-width:1.0;" x1="474.75" x2="474.75" y1="299.6001" y2="334.6001"/><polygon fill="#E91E63" points="470.75,324.6001,474.75,334.6001,478.75,324.6001,474.75,328.6001" style="stroke:#E91E63;stroke-width:1.0;"/><line style="stroke:#E91E63;stroke-width:1.0;" x1="474.75" x2="474.75" y1="374.2001" y2="409.2001"/><polygon fill="#E91E63" points="470.75,399.2001,474.75,409.2001,478.75,399.2001,474.75,403.2001" style="stroke:#E91E63;stroke-width:1.0;"/><line style="stroke:#E91E63;stroke-width:1.0;" x1="812.75" x2="812.75" y1="259.5001" y2="294.5001"/><polygon fill="#E91E63" points="808.75,284.5001,812.75,294.5001,816.75,284.5001,812.75,288.5001" style="stroke:#E91E63;stroke-width:1.0;"/><line style="stroke:#E91E63;stroke-width:1.0;" x1="112.5" x2="112.5" y1="81.1" y2="131.3"/><polygon fill="#E91E63" points="108.5,121.3,112.5,131.3,116.5,121.3,112.5,125.3" style="stroke:#E91E63;stroke-width:1.0;"/><line style="stroke:#E91E63;stroke-width:1.0;" x1="474.75" x2="474.75" y1="81.1" y2="99.6"/><polygon fill="#E91E63" points="470.75,89.6,474.75,99.6,478.75,89.6,474.75,93.6" style="stroke:#E91E63;stroke-width:1.0;"/><line style="stroke:#E91E63;stroke-width:1.0;" x1="812.75" x2="812.75" y1="81.1" y2="214.3"/><polygon fill="#E91E63" points="808.75,204.3,812.75,214.3,816.75,204.3,812.75,208.3" style="stroke:#E91E63;stroke-width:1.0;"/><line style="stroke:#E91E63;stroke-width:1.0;" x1="112.5" x2="112.5" y1="414.3001" y2="468.8001"/><polygon fill="#E91E63" points="108.5,458.8001,112.5,468.8001,116.5,458.8001,112.5,462.8001" style="stroke:#E91E63;stroke-width:1.0;"/><line style="stroke:#E91E63;stroke-width:1.0;" x1="474.75" x2="474.75" y1="448.8001" y2="468.8001"/><polygon fill="#E91E63" points="470.75,458.8001,474.75,468.8001,478.75,458.8001,474.75,462.8001" style="stroke:#E91E63;stroke-width:1.0;"/><line style="stroke:#E91E63;stroke-width:1.0;" x1="812.75" x2="812.75" y1="334.1001" y2="468.8001"/><polygon fill="#E91E63" points="808.75,458.8001,812.75,468.8001,816.75,458.8001,812.75,462.8001" style="stroke:#E91E63;stroke-width:1.0;"/><line style="stroke:#E91E63;stroke-width:1.0;" x1="456" x2="456" y1="30" y2="79.6"/><polygon fill="#E91E63" points="452,69.6,456,79.6,460,69.6,456,73.6" style="stroke:#E91E63;stroke-width:1.0;"/><line style="stroke:#E91E63;stroke-width:1.0;" x1="324.75" x2="324.75" y1="506.8001" y2="526.8001"/><polygon fill="#E91E63" points="320.75,516.8001,324.75,526.8001,328.75,516.8001,324.75,520.8001" style="stroke:#E91E63;stroke-width:1.0;"/><line style="stroke:#E91E63;stroke-width:1.0;" x1="422.5" x2="422.5" y1="506.8001" y2="526.8001"/><polygon fill="#E91E63" points="418.5,516.8001,422.5,526.8001,426.5,516.8001,422.5,520.8001" style="stroke:#E91E63;stroke-width:1.0;"/><line style="stroke:#E91E63;stroke-width:1.0;" x1="519.5" x2="519.5" y1="506.8001" y2="526.8001"/><polygon fill="#E91E63" points="515.5,516.8001,519.5,526.8001,523.5,516.8001,519.5,520.8001" style="stroke:#E91E63;stroke-width:1.0;"/><line style="stroke:#E91E63;stroke-width:1.0;" x1="619.5" x2="619.5" y1="506.8001" y2="526.8001"/><polygon fill="#E91E63" points="615.5,516.8001,619.5,526.8001,623.5,516.8001,619.5,520.8001" style="stroke:#E91E63;stroke-width:1.0;"/><line style="stroke:#E91E63;stroke-width:1.0;" x1="324.75" x2="324.75" y1="582.0001" y2="602.0001"/><polygon fill="#E91E63" points="320.75,592.0001,324.75,602.0001,328.75,592.0001,324.75,596.0001" style="stroke:#E91E63;stroke-width:1.0;"/><line style="stroke:#E91E63;stroke-width:1.0;" x1="422.5" x2="422.5" y1="582.0001" y2="602.0001"/><polygon fill="#E91E63" points="418.5,592.0001,422.5,602.0001,426.5,592.0001,422.5,596.0001" style="stroke:#E91E63;stroke-width:1.0;"/><line style="stroke:#E91E63;stroke-width:1.0;" x1="519.5" x2="519.5" y1="582.0001" y2="602.0001"/><polygon fill="#E91E63" points="515.5,592.0001,519.5,602.0001,523.5,592.0001,519.5,596.0001" style="stroke:#E91E63;stroke-width:1.0;"/><line style="stroke:#E91E63;stroke-width:1.0;" x1="619.5" x2="619.5" y1="582.0001" y2="602.0001"/><polygon fill="#E91E63" points="615.5,592.0001,619.5,602.0001,623.5,592.0001,619.5,596.0001" style="stroke:#E91E63;stroke-width:1.0;"/><line style="stroke:#E91E63;stroke-width:1.0;" x1="456" x2="456" y1="470.3001" y2="500.8001"/><polygon fill="#E91E63" points="452,490.8001,456,500.8001,460,490.8001,456,494.8001" style="stroke:#E91E63;stroke-width:1.0;"/><line style="stroke:#E91E63;stroke-width:1.0;" x1="456" x2="456" y1="608.0001" y2="628.0001"/><polygon fill="#E91E63" points="452,618.0001,456,628.0001,460,618.0001,456,622.0001" style="stroke:#E91E63;stroke-width:1.0;"/><line style="stroke:#E91E63;stroke-width:1.0;" x1="456" x2="456" y1="667.6002" y2="687.6002"/><polygon fill="#E91E63" points="452,677.6002,456,687.6002,460,677.6002,456,681.6002" style="stroke:#E91E63;stroke-width:1.0;"/><!--MD5=[0eb83c0f437aa8e18ab06e88c65262dd]
@startuml
' Styling settings for PlantUML diagrams
' See http://plantuml.sourceforge.net for documentation
' To get a list of possible skinparam settings, run: plantuml -language

' COLORS
' ========================================

' general colors from own stylesheet
!$diagram_background_color = "#fff"
!$diagram_border_color = "#fff"
!$diagram_color = "#808080"
!$arrow_color = "#e91e63"
!$link_color = "#3498DB"

' make admonition colors available for elements
!$caution_color = "#a0439c"
!$caution_on_color = "#fff"
!$important_color = "#d32f2f"
!$important_on_color = "#fff"
!$note_color = "#217ee7"
!$note_on_color = "#fff"
!$tip_color = "#41af46"
!$tip_on_color = "#fff"
!$warning_color = "#e18114"
!$warning_on_color = "#fff"

' node_1, node_2 and note taken from C4 styling
!$node_1_main_color = "#08427b"
!$node_2_main_color = "#1168bd"
!$node_2_aux2_color = "#3498DB"
!$note_main_color = "#999"

' use admonition colors for other elements
!$logic_main_color = $warning_color
!$group_main_color = $caution_color
!$divider_main_color = $tip_color

!procedure $logic_style($var=1)
  $styling($var, $logic_main_color, $logic_main_color, $warning_on_color) 
!endprocedure

!procedure $group_style($var=4)
  $styling($var, $group_main_color, $group_main_color, $caution_on_color, "#FFFCFF") 
!endprocedure

!procedure $divider_style($var=1)
  $styling($var, $divider_main_color, $divider_main_color, $tip_on_color) 
!endprocedure

!procedure $node_1_style($var=1)
  $styling($var, $node_1_main_color, "#fff", "fff") 
!endprocedure

!procedure $node_2_style($var=1)
  $styling($var, $node_2_main_color, "#fff", "fff", $node_2_aux2_color) 
!endprocedure

!procedure $note_1_style($var=1)
  $styling($var, $note_main_color, "#fff", "fff") 
!endprocedure

' STYLE HELPERS
' ========================================

' get variation with color palette:
' $main: primary fill color, typically background
' $aux1, $aux2: add'l fill colors, typically border, alternative background
' $on1, $on2: text colors, typically main text, supplementary
' variations:
' 1) regular (default)
' 2) name reversed (label outside)
' 3) reverse background
' 4) light background
' 5) border box (loop, alt)
' 6) ...

!procedure $styling($var=1, $main, $aux1, $on1, $aux2="#ccc", $on2="#666")
  !if ($var=="2")
    BackgroundColor $main
    BorderColor $aux1
    FontColor $main
    StereotypeFontColor $main
  !elseif ($var=="3")
    BackgroundColor $aux1
    BorderColor $main
    FontColor $main
    StereotypeFontColor $main
  !elseif ($var==4)
    BackgroundColor $aux2
    BorderColor $aux1
    FontColor $main
  !elseif ($var=="5")
    BackgroundColor $main
    BorderColor $aux1
    FontColor $main
    HeaderFontColor $on1
  !elseif ($var=="6")
    BackgroundColor $on1
    BorderColor $aux1
    FontColor $main
    HeaderFontColor $on1
    HeaderBackgroundColor $aux1
  !elseif ($var==7)
    BackgroundColor $aux2
    BorderColor $main
    FontColor $main
  !else
    BackgroundColor $main
    BorderColor $aux1
    FontColor $on1
    StereotypeFontColor $on1
    HeaderBackgroundColor $on1
  !endif
  FontSize 13
!endprocedure

' GENERAL SETTINGS
' ========================================

!$body_font_family = "Roboto"
' each element can get its own FontName, FontSize, FontStyle; not added now

skinparam BackgroundColor $diagram_background_color
skinparam DiagramBorderColor $diagram_border_color
skinparam HyperlinkColor $link_color

'skinparam monochrome true
skinparam shadowing false
skinparam Handwritten false
skinparam Padding 2
'skinparam Roundcorner 5

' Setting a minimum width can make sequence diagram participants look more balanced
skinparam minClassWidth 100

skinparam Default {
  FontColor $doc_font_color
  FontName $body_font_family
  FontStyle normal
  TextAlignment center
}

skinparam Arrow {
  Color $arrow_color
  FontColor $arrow_color
}

skinparam Note {
  $note_1_style()
}

' USE CASE
' ========================================

skinparam Actor {
  $node_1_style(2)
  ' Make actors look like in C4
  Style awesome
}

skinparam Usecase {
  $node_2_style()
}

skinparam Package {
  $group_style()
}

' ACTIVITY
' ========================================

skinparam Activity {
  $node_2_style()

  StartColor $node_1_main_color
  EndColor $node_1_main_color
  BarColor $logic_main_color
}

skinparam ActivityDiamond {
  $logic_style()
}

skinparam Partition {
  $group_style()
}

skinparam Swimlane {
  $divider_style()
}

skinparam SwimlaneTitle {
  $divider_style(6)
}

' SEQUENCE
' ========================================

'Actor: see Use Case diagram above

skinparam Participant {
  $node_1_style()
'  Padding 40
}

skinparam Boundary {
  $node_1_style(3)
}

skinparam Control {
  $node_1_style(3)
}

skinparam Entity {
  $node_1_style(3)
}

skinparam Database {
  $node_1_style(2)
}

skinparam Collections {
  $node_1_style()
}

skinparam Queue {
  $node_1_style()
}

skinparam SequenceLifeline {
  $node_2_style(7)
}

skinparam SequenceDelay {
  $divider_style(2)
}

skinparam SequenceDivider {
  $divider_style()
}

skinparam SequenceGroup {
  $logic_style(5)
}

skinparam SequenceReference {
  $group_style(6)
  BorderThickness 1
}

skinparam SequenceBox {
  $group_style(4)
'  Padding 13
}

' ========================================
' ========================================


' DEPLOYMENT
' ========================================

' Actor: see Use case diagram
' Use case: see Use case diagram
' Package: see Use case diagram (fix?)
' Boundary: see Sequence diagram
' Control: see Sequence diagram
' Entity: see Sequence diagram
' Queue: see Sequence diagram

' Database: see Sequence diagram (fix?)
' Collections: see Sequence diagram (fix?)

skinparam Agent {
  $node_2_style()
}

skinparam Person {
  $node_1_style()
}

skinparam Artifact {
  $node_2_style()
}

skinparam Component {
  $node_2_style()
}

skinparam File {
  $node_2_style()
}

skinparam Card {
  $node_2_style()
}

skinparam Storage {
  $node_2_style()
}

skinparam Cloud {
  $group_style(4)
}

skinparam Frame {
  $group_style()
}

skinparam Node {
  $group_style()
}

' check lighter background
skinparam Stack {
  $node_2_style()
}

' artefact or group?
skinparam Folder {
  $group_style()
}

skinparam Hexagon {
  $logic_style()
}

skinparam Interface {
  $logic_style(3)
}

skinparam Object {
  $node_2_style()
'  AttributeFontColor $arrow_color
'  EndColor $arrow_color
'  StartColor $arrow_color
}

skinparam Rectangle {
  $logic_style()
}

' Used in C4 models:
skinparam Rectangle<<boundary>> {
  $logic_style(6)
}

skinparam State {
  $node_2_style()
'  AttributeFontColor $arrow_color
'  EndColor $arrow_color
'  StartColor $arrow_color
}

!$i=$important_color
start
partition "input files" {
  split
    note: manually compiled\nusing S2I templates
    $i:Nuffic S2I sheets<
    note right: 1st, 2nd, 3rd level\nactivities
    $i:results.baselines_OKP<
    note right: additional\nbaseline data
    $i:countries and regions_OKP<
    note right: aggregated countries\nbased on Atlas data
  split again
    note: OKP exports from systems
    $i:Akvo XML<
    note right: info for\nTMT/TMT+/RC
    $i:BusinessWorld\ntransactions<
    note right: all transactions
    $i:Projects OKP-IS Atlas<
    note right: IS activities 2017-2019
    $i:Projects OKP-IS Delta<
    note right: IS activities 2020+
  split again
    note: Neso Indonesia\nusing S2I templates
    $i:StuNed S2I sheets<
  end split
}
fork
  :process\nmain structure;
fork again
  :process\nIS data;
fork again
  :process\nGT data;
fork again
  :process\nICP data;
end fork
:merge;
$i:IATI file>
@enduml

@startuml

















skinparam BackgroundColor #fff
skinparam DiagramBorderColor #fff
skinparam HyperlinkColor #3498DB

skinparam shadowing false
skinparam Handwritten false
skinparam Padding 2

skinparam minClassWidth 100

skinparam Default {
  FontColor $doc_font_color
  FontName Roboto
  FontStyle normal
  TextAlignment center
}

skinparam Arrow {
  Color #e91e63
  FontColor #e91e63
}

skinparam Note {
      BackgroundColor #999
    BorderColor #fff
    FontColor fff
    StereotypeFontColor fff
    HeaderBackgroundColor fff
  FontSize 13 
}


skinparam Actor {
      BackgroundColor #08427b
    BorderColor #fff
    FontColor #08427b
    StereotypeFontColor #08427b
  FontSize 13 
  Style awesome
}

skinparam Usecase {
      BackgroundColor #1168bd
    BorderColor #fff
    FontColor fff
    StereotypeFontColor fff
    HeaderBackgroundColor fff
  FontSize 13 
}

skinparam Package {
      BackgroundColor #FFFCFF
    BorderColor #a0439c
    FontColor #a0439c
  FontSize 13 
}


skinparam Activity {
      BackgroundColor #1168bd
    BorderColor #fff
    FontColor fff
    StereotypeFontColor fff
    HeaderBackgroundColor fff
  FontSize 13 

  StartColor #08427b
  EndColor #08427b
  BarColor #e18114
}

skinparam ActivityDiamond {
      BackgroundColor #e18114
    BorderColor #e18114
    FontColor #fff
    StereotypeFontColor #fff
    HeaderBackgroundColor #fff
  FontSize 13 
}

skinparam Partition {
      BackgroundColor #FFFCFF
    BorderColor #a0439c
    FontColor #a0439c
  FontSize 13 
}

skinparam Swimlane {
      BackgroundColor #41af46
    BorderColor #41af46
    FontColor #fff
    StereotypeFontColor #fff
    HeaderBackgroundColor #fff
  FontSize 13 
}

skinparam SwimlaneTitle {
      BackgroundColor #fff
    BorderColor #41af46
    FontColor #41af46
    HeaderFontColor #fff
    HeaderBackgroundColor #41af46
  FontSize 13 
}



skinparam Participant {
      BackgroundColor #08427b
    BorderColor #fff
    FontColor fff
    StereotypeFontColor fff
    HeaderBackgroundColor fff
  FontSize 13 
}

skinparam Boundary {
      BackgroundColor #fff
    BorderColor #08427b
    FontColor #08427b
    StereotypeFontColor #08427b
  FontSize 13 
}

skinparam Control {
      BackgroundColor #fff
    BorderColor #08427b
    FontColor #08427b
    StereotypeFontColor #08427b
  FontSize 13 
}

skinparam Entity {
      BackgroundColor #fff
    BorderColor #08427b
    FontColor #08427b
    StereotypeFontColor #08427b
  FontSize 13 
}

skinparam Database {
      BackgroundColor #08427b
    BorderColor #fff
    FontColor #08427b
    StereotypeFontColor #08427b
  FontSize 13 
}

skinparam Collections {
      BackgroundColor #08427b
    BorderColor #fff
    FontColor fff
    StereotypeFontColor fff
    HeaderBackgroundColor fff
  FontSize 13 
}

skinparam Queue {
      BackgroundColor #08427b
    BorderColor #fff
    FontColor fff
    StereotypeFontColor fff
    HeaderBackgroundColor fff
  FontSize 13 
}

skinparam SequenceLifeline {
      BackgroundColor #3498DB
    BorderColor #1168bd
    FontColor #1168bd
  FontSize 13 
}

skinparam SequenceDelay {
      BackgroundColor #41af46
    BorderColor #41af46
    FontColor #41af46
    StereotypeFontColor #41af46
  FontSize 13 
}

skinparam SequenceDivider {
      BackgroundColor #41af46
    BorderColor #41af46
    FontColor #fff
    StereotypeFontColor #fff
    HeaderBackgroundColor #fff
  FontSize 13 
}

skinparam SequenceGroup {
      BackgroundColor #e18114
    BorderColor #e18114
    FontColor #e18114
    HeaderFontColor #fff
  FontSize 13 
}

skinparam SequenceReference {
      BackgroundColor #fff
    BorderColor #a0439c
    FontColor #a0439c
    HeaderFontColor #fff
    HeaderBackgroundColor #a0439c
  FontSize 13 
  BorderThickness 1
}

skinparam SequenceBox {
      BackgroundColor #FFFCFF
    BorderColor #a0439c
    FontColor #a0439c
  FontSize 13 
}






skinparam Agent {
      BackgroundColor #1168bd
    BorderColor #fff
    FontColor fff
    StereotypeFontColor fff
    HeaderBackgroundColor fff
  FontSize 13 
}

skinparam Person {
      BackgroundColor #08427b
    BorderColor #fff
    FontColor fff
    StereotypeFontColor fff
    HeaderBackgroundColor fff
  FontSize 13 
}

skinparam Artifact {
      BackgroundColor #1168bd
    BorderColor #fff
    FontColor fff
    StereotypeFontColor fff
    HeaderBackgroundColor fff
  FontSize 13 
}

skinparam Component {
      BackgroundColor #1168bd
    BorderColor #fff
    FontColor fff
    StereotypeFontColor fff
    HeaderBackgroundColor fff
  FontSize 13 
}

skinparam File {
      BackgroundColor #1168bd
    BorderColor #fff
    FontColor fff
    StereotypeFontColor fff
    HeaderBackgroundColor fff
  FontSize 13 
}

skinparam Card {
      BackgroundColor #1168bd
    BorderColor #fff
    FontColor fff
    StereotypeFontColor fff
    HeaderBackgroundColor fff
  FontSize 13 
}

skinparam Storage {
      BackgroundColor #1168bd
    BorderColor #fff
    FontColor fff
    StereotypeFontColor fff
    HeaderBackgroundColor fff
  FontSize 13 
}

skinparam Cloud {
      BackgroundColor #FFFCFF
    BorderColor #a0439c
    FontColor #a0439c
  FontSize 13 
}

skinparam Frame {
      BackgroundColor #FFFCFF
    BorderColor #a0439c
    FontColor #a0439c
  FontSize 13 
}

skinparam Node {
      BackgroundColor #FFFCFF
    BorderColor #a0439c
    FontColor #a0439c
  FontSize 13 
}

skinparam Stack {
      BackgroundColor #1168bd
    BorderColor #fff
    FontColor fff
    StereotypeFontColor fff
    HeaderBackgroundColor fff
  FontSize 13 
}

skinparam Folder {
      BackgroundColor #FFFCFF
    BorderColor #a0439c
    FontColor #a0439c
  FontSize 13 
}

skinparam Hexagon {
      BackgroundColor #e18114
    BorderColor #e18114
    FontColor #fff
    StereotypeFontColor #fff
    HeaderBackgroundColor #fff
  FontSize 13 
}

skinparam Interface {
      BackgroundColor #e18114
    BorderColor #e18114
    FontColor #e18114
    StereotypeFontColor #e18114
  FontSize 13 
}

skinparam Object {
      BackgroundColor #1168bd
    BorderColor #fff
    FontColor fff
    StereotypeFontColor fff
    HeaderBackgroundColor fff
  FontSize 13 
}

skinparam Rectangle {
      BackgroundColor #e18114
    BorderColor #e18114
    FontColor #fff
    StereotypeFontColor #fff
    HeaderBackgroundColor #fff
  FontSize 13 
}

skinparam Rectangle<<boundary>> {
      BackgroundColor #fff
    BorderColor #e18114
    FontColor #e18114
    HeaderFontColor #fff
    HeaderBackgroundColor #e18114
  FontSize 13 
}

skinparam State {
      BackgroundColor #1168bd
    BorderColor #fff
    FontColor fff
    StereotypeFontColor fff
    HeaderBackgroundColor fff
  FontSize 13 
}

start
partition "input files" {
  split
    note: manually compiled\nusing S2I templates
    #d32f2f:Nuffic S2I sheets<
    note right: 1st, 2nd, 3rd level\nactivities
    #d32f2f:results.baselines_OKP<
    note right: additional\nbaseline data
    #d32f2f:countries and regions_OKP<
    note right: aggregated countries\nbased on Atlas data
  split again
    note: OKP exports from systems
    #d32f2f:Akvo XML<
    note right: info for\nTMT/TMT+/RC
    #d32f2f:BusinessWorld\ntransactions<
    note right: all transactions
    #d32f2f:Projects OKP-IS Atlas<
    note right: IS activities 2017-2019
    #d32f2f:Projects OKP-IS Delta<
    note right: IS activities 2020+
  split again
    note: Neso Indonesia\nusing S2I templates
    #d32f2f:StuNed S2I sheets<
  end split
}
fork
  :process\nmain structure;
fork again
  :process\nIS data;
fork again
  :process\nGT data;
fork again
  :process\nICP data;
end fork
:merge;
#d32f2f:IATI file>
@enduml

PlantUML version 1.2022.5(Sat Apr 30 10:55:52 GMT 2022)
(GPL source distribution)
Java Runtime: OpenJDK Runtime Environment
JVM: OpenJDK 64-Bit Server VM
Default Encoding: UTF-8
Language: en
Country: US
--></g></svg>